<?xml version="1.0" encoding="utf-8"?>
<!-- Generator: Adobe Illustrator 21.1.0, SVG Export Plug-In . SVG Version: 6.00 Build 0)  -->
<svg version="1.1" id="Layer_1" xmlns="http://www.w3.org/2000/svg" xmlns:xlink="http://www.w3.org/1999/xlink" x="0px" y="0px"
	 viewBox="0 0 612 792" style="enable-background:new 0 0 612 792;" xml:space="preserve">
<style type="text/css">
	.st0{fill:none;}
	.st1{fill:#FFFFFF;stroke:#000000;stroke-width:4;stroke-miterlimit:10;}
	.st2{stroke:#000000;stroke-width:3;stroke-miterlimit:10;}
	.st3{fill:#FFFFFF;stroke:#000000;stroke-width:3;stroke-miterlimit:10;}
</style>
<path id="SVGID_x5F_1_x5F_" class="st0" d="M514,394c0,108.2-90.2,196-201.5,196S111,502.2,111,394s90.2-196,201.5-196
	S514,285.8,514,394z"/>
<text><textPath  xlink:href="#SVGID_x5F_1_x5F_" startOffset="83.8297%">
<tspan  class="st2" style="font-family:'MyriadPro-Regular'; font-size:72px;">  Mynoirity	                     REPORT</tspan></textPath>
</text>
<path id="SVGID_x5F_2_x5F_" class="st0" d="M551,430c0,108.2-90.2,196-201.5,196S148,538.2,148,430s90.2-196,201.5-196
	S551,321.8,551,430z"/>
<text><textPath  xlink:href="#SVGID_x5F_2_x5F_" startOffset="0%">
</textPath>
</text>
<path id="SVGID_x5F_3_x5F_" class="st0" d="M696,375c0,108.2-90.2,196-201.5,196S293,483.2,293,375s90.2-196,201.5-196
	S696,266.8,696,375z"/>
<text><textPath  xlink:href="#SVGID_x5F_3_x5F_" startOffset="0%">
</textPath>
</text>
<ellipse class="st1" cx="312.5" cy="396" rx="177.8" ry="172.5"/>
<circle class="st2" cx="312.5" cy="362" r="118"/>
<ellipse class="st3" cx="312.5" cy="439" rx="70" ry="92"/>
<circle class="st2" cx="279" cy="404" r="8"/>
<circle class="st2" cx="341.5" cy="404" r="8"/>
<ellipse class="st2" cx="310.3" cy="486.3" rx="31.3" ry="16.3"/>
</svg>
